<svg id="Camada_1" data-name="Camada 1" xmlns="http://www.w3.org/2000/svg" viewBox="0 0 300 203.79"><defs><style>.cls-1{fill:#4a4add;}</style></defs><path class="cls-1" d="M206.42,121.4l3.48-24.35a9.56,9.56,0,0,1,9.47-8.2h68.3a9.56,9.56,0,0,0,9.48-8.35l2.77-21.62a9.55,9.55,0,0,0-9.48-10.77H143.67a9.54,9.54,0,0,0-9.46,8.2l-1,7.27-2.44,17.06a9.57,9.57,0,0,1-9.47,8.21H108.55a9.57,9.57,0,0,1-9.46-10.91L101.79,59a9.56,9.56,0,0,0-9.47-10.9H65.06a9.54,9.54,0,0,0-9.46,8.2L52.12,80.64a9.57,9.57,0,0,1-9.47,8.21H24.3a9.54,9.54,0,0,0-9.46,8.2l-3.1,21.64a9.57,9.57,0,0,0,9.46,10.92H34.1a9.56,9.56,0,0,1,9.46,10.9l-3.08,21.65A9.57,9.57,0,0,1,31,170.37H12.64a9.56,9.56,0,0,0-9.46,8.21L.1,200.22a9.56,9.56,0,0,0,9.46,10.91H22.45A9.57,9.57,0,0,1,31.92,222L29.21,241a9.55,9.55,0,0,0,9.46,10.91H65.94a9.56,9.56,0,0,0,9.47-8.21l3.47-24.34a9.55,9.55,0,0,1,9.46-8.21h12.72A9.57,9.57,0,0,1,110.53,222L107.82,241a9.55,9.55,0,0,0,9.46,10.91h35.57l0-.11H268.06a9.55,9.55,0,0,0,9.48-8.34l2.77-21.65A9.56,9.56,0,0,0,270.83,211H204.65a9.56,9.56,0,0,1-9.46-10.91l2.68-18.83a9.56,9.56,0,0,0-9.47-10.91H175.51a9.55,9.55,0,0,1-9.46-10.91l3.09-21.65a9.55,9.55,0,0,1,9.46-8.2H197A9.56,9.56,0,0,0,206.42,121.4Zm-119,38.06,3.09-21.65a9.55,9.55,0,0,1,9.46-8.2H112.7a9.55,9.55,0,0,1,9.46,10.91l-3.09,21.64a9.57,9.57,0,0,1-9.47,8.21H96.9A9.55,9.55,0,0,1,87.44,159.46Z" transform="translate(0 -48.11)"/></svg>