<svg id="Camada_1" data-name="Camada 1" xmlns="http://www.w3.org/2000/svg" viewBox="0 0 300 296.89"><defs><style>.cls-1{fill:#2e3192;}.cls-2{fill:#fff;}</style></defs><path class="cls-1" d="M250.52,159.63V148.47a98.1,98.1,0,0,0-98.11-98.11H141.25a5.92,5.92,0,0,1-5.92-5.92h0a8.17,8.17,0,0,0-10.11-7.93A115.2,115.2,0,1,0,264.37,175.66a8.17,8.17,0,0,0-7.93-10.11h0A5.92,5.92,0,0,1,250.52,159.63Z" transform="translate(0 -1.55)"/><path class="cls-1" d="M261.75,162.13h-.33a4.55,4.55,0,0,1-4.22-4.86,112.69,112.69,0,0,0-5.47-43.8c-2.58-7.73-7.94-23.84-22.87-39.27A97.49,97.49,0,0,0,194,51.33a111.43,111.43,0,0,0-50.32-7.65,4.56,4.56,0,0,1-.71-9.09,120.68,120.68,0,0,1,54.45,8.3,105.89,105.89,0,0,1,38,25c16.37,16.92,22.39,35,25,42.72a121.82,121.82,0,0,1,5.92,47.32A4.55,4.55,0,0,1,261.75,162.13Z" transform="translate(0 -1.55)"/><path class="cls-1" d="M152.3,282.74c-39.2,0-76.84-16.28-102.41-45.88C9.63,190.26,7.11,118.28,44,69.42c36.65-48.53,96.53-51.2,108.16-51.25h.61c35.38,0,66.63,11.6,90.42,33.56,42.67,39.39,41.54,93.89,40.17,109.66a136.76,136.76,0,0,1-15.3,51.82A4.55,4.55,0,1,1,260,209a127.77,127.77,0,0,0,14.3-48.39C275.56,145.88,276.63,95,237,58.43c-22.08-20.38-51.21-31.15-84.25-31.15h-.58c-10.88,0-66.86,2.53-100.92,47.63-34.37,45.51-32,112.57,5.51,156,31.94,37,84.17,51.62,133.08,37.33a4.55,4.55,0,1,1,2.55,8.74A142.92,142.92,0,0,1,152.3,282.74Z" transform="translate(0 -1.55)"/><path class="cls-1" d="M148.89,298.45c-41.55,0-82-16.91-110.3-47.83a146.47,146.47,0,0,1-37.54-82.5A148.94,148.94,0,0,1,17.43,80.27C34.31,48.6,62.45,25,98.81,12c28.75-10.28,52.6-10.43,53.6-10.44,19.66,0,69.47,4.26,108.07,44.69,29.08,30.46,42.87,73,38.83,119.7-4,46.44-27.4,79.37-41,94.86a4.56,4.56,0,0,1-6.86-6c12.85-14.65,35-45.78,38.75-89.63,3.82-44.09-9.09-84.09-36.34-112.63-36-37.73-82.65-41.86-101.25-41.86h-.22c-.94,0-23.26.15-50.54,9.9C67.2,33,41.49,54.49,25.47,84.56-2.41,136.85,5.56,201.11,45.3,244.47c36.16,39.44,93.33,54.59,145.64,38.58a4.56,4.56,0,0,1,2.67,8.71A152.86,152.86,0,0,1,148.89,298.45Z" transform="translate(0 -1.55)"/><path class="cls-1" d="M198,244.28l51.44-49.57a1.73,1.73,0,0,1,2.79,1.93c-2.05,4.7-4.28,10.32-6.41,16.74-5.49,16.52-4.82,21.72-9.11,34.17-7.58,22-20.61,37.5-22.78,36.44-2.58-1.26,11.67-25.1,3.42-34.17-3.52-3.87-10.26-4.07-17.81-2.61A1.72,1.72,0,0,1,198,244.28Z" transform="translate(0 -1.55)"/><path class="cls-1" d="M214.16,288.59a5.14,5.14,0,0,1-2.25-.51c-4.51-2.21-2.89-6.83-.64-13.23s6.31-18,2.69-22c-1.92-2.1-6.74-2.53-13.57-1.21A6.28,6.28,0,0,1,194.82,241l51.44-49.57a6.28,6.28,0,0,1,10.12,7c-2.32,5.35-4.43,10.85-6.26,16.37a158,158,0,0,0-5,18.8A119.26,119.26,0,0,1,241,249c-6.55,19-18.6,36.62-24.6,39.1A5.85,5.85,0,0,1,214.16,288.59Zm-6.85-46.78c6,0,10.38,1.64,13.39,4.95,4.38,4.81,4.36,11.77,2.94,18.55a112.41,112.41,0,0,0,8.74-19.25,108,108,0,0,0,3.81-14.35,168.56,168.56,0,0,1,5.29-19.77c.54-1.62,1.1-3.25,1.69-4.87l-36.06,34.74ZM198,244.28h0Z" transform="translate(0 -1.55)"/><path class="cls-2" d="M174.06,141.63l1.76-12.27a4.81,4.81,0,0,1,4.77-4.14H215a4.82,4.82,0,0,0,4.78-4.2l1.4-10.9a4.82,4.82,0,0,0-4.78-5.43h-74a4.81,4.81,0,0,0-4.77,4.13l-.53,3.67-1.23,8.6a4.81,4.81,0,0,1-4.77,4.13h-6.4a4.81,4.81,0,0,1-4.77-5.5l1.36-9.53a4.82,4.82,0,0,0-4.77-5.5H102.81a4.81,4.81,0,0,0-4.76,4.13l-1.76,12.27a4.81,4.81,0,0,1-4.77,4.13H82.27a4.81,4.81,0,0,0-4.77,4.14l-1.56,10.91a4.82,4.82,0,0,0,4.77,5.5h6.5A4.82,4.82,0,0,1,92,151.26l-1.56,10.91a4.81,4.81,0,0,1-4.77,4.14H76.4a4.82,4.82,0,0,0-4.77,4.14l-1.56,10.91a4.82,4.82,0,0,0,4.77,5.5h6.5a4.82,4.82,0,0,1,4.77,5.5l-1.37,9.54a4.82,4.82,0,0,0,4.77,5.5h13.75a4.81,4.81,0,0,0,4.77-4.14L109.78,191a4.81,4.81,0,0,1,4.77-4.14H121a4.82,4.82,0,0,1,4.77,5.5l-1.37,9.54a4.82,4.82,0,0,0,4.77,5.5h17.93v-.06h58.06a4.82,4.82,0,0,0,4.78-4.2l1.39-10.91a4.81,4.81,0,0,0-4.78-5.43H173.17a4.82,4.82,0,0,1-4.77-5.5l1.35-9.49a4.82,4.82,0,0,0-4.77-5.5h-6.5a4.82,4.82,0,0,1-4.77-5.5l1.56-10.91a4.82,4.82,0,0,1,4.77-4.13h9.25A4.82,4.82,0,0,0,174.06,141.63Zm-60,19.18,1.56-10.91a4.81,4.81,0,0,1,4.77-4.13h6.41a4.81,4.81,0,0,1,4.76,5.5L130,162.18a4.8,4.8,0,0,1-4.76,4.13h-6.41A4.82,4.82,0,0,1,114.09,160.81Z" transform="translate(0 -1.55)"/></svg>